<?xml version="1.0" encoding="utf-8"?>
<!-- Svg Vector Icons : http://www.onlinewebfonts.com/icon -->
<!DOCTYPE svg PUBLIC "-//W3C//DTD SVG 1.1//EN" "http://www.w3.org/Graphics/SVG/1.1/DTD/svg11.dtd">
<svg version="1.1" xmlns="http://www.w3.org/2000/svg" xmlns:xlink="http://www.w3.org/1999/xlink" x="0px" y="0px" viewBox="0 0 1000 1000" enable-background="new 0 0 1000 1000" xml:space="preserve">
<metadata> Svg Vector Icons : http://www.onlinewebfonts.com/icon </metadata>
<g><g transform="translate(0.000000,511.000000) scale(0.100000,-0.100000)"><path d="M5367.4,4755.2c-433.4-91-751.8-371.1-895.5-797.3l-38.3-114.9l-100.6,74.2c-239.4,177.2-603.4,253.8-900.2,193.9c-411.8-86.2-771-419-878.7-816.5c-16.8-59.9-33.5-119.7-38.3-136.5c-4.8-21.5-43.1-16.8-136.5,16.8c-603.4,213.1-1269-119.7-1474.9-735.1c-91-270.6-57.5-658.4,76.6-897.9c26.3-50.3,45.5-93.4,38.3-98.2c-4.8-4.8-71.8-26.3-148.4-50.3C574.1,1305,279.6,1024.9,157.5,716C109.6,598.7,100,534,100,289.8c0-277.7,2.4-294.5,83.8-466.9c74.2-162.8,126.9-225,565.1-670.4l486-490.8l9.6-658.4c7.2-524.3,16.8-687.2,50.3-802.1C1515-3579.3,2025-4144.4,2750.5-4415c347.2-129.3,335.2-126.9,1898.7-136.5c979.3-7.2,1537.1-2.4,1692.8,16.8c471.7,55.1,919.4,220.3,1304.9,481.2c265.8,179.6,1450.9,1371.9,1656.9,1661.7c251.4,359.1,442.9,794.9,541.1,1240.2c62.2,273,74.2,917,23.9,1218.7c-76.6,462.1-261,933.8-510,1312.1c-189.2,282.5-462.1,572.2-1814.9,1917.8C6164.7,4666.6,6157.6,4671.4,5817.6,4743.2C5640.4,4781.5,5513.5,4783.9,5367.4,4755.2z M5846.3,4194.9c167.6-79,2918.7-2839.6,3081.5-3091c658.4-1015.2,627.3-2296.1-83.8-3258.6c-158-213.1-1228.3-1285.7-1429.4-1434.2c-205.9-148.4-476.5-284.9-735-363.9l-210.7-67l-1589.8-7.2c-1530-7.2-1594.6-4.8-1781.3,43.1c-512.4,129.3-931.4,466.9-1166,945.8c-138.9,280.1-172.4,428.6-184.4,838l-12,359.1l332.8-328c320.8-316,337.6-330.4,433.4-330.4c179.6,0,304.1,165.2,244.2,325.6c-14.4,38.3-471.7,514.8-1051.1,1099C734.5-112.4,665.1-35.8,626.7,83.9C550.1,323.3,610,579.5,787.2,754.3c117.3,117.3,244.2,170,423.8,170c277.7,0,308.9-16.8,756.6-457.3C2410.5,33.6,2456,7.3,2611.6,71.9c105.3,43.1,170,170,143.7,287.3c-12,55.1-172.4,234.6-656,720.7c-352,356.7-660.8,684.8-684.8,730.3c-67,124.5-62.3,433.4,7.2,562.7c117.3,220.3,328,347.2,581.8,347.2c263.4,0,301.7-28.7,1020-744.6l646.5-644.1h107.7c160.4,2.4,261,102.9,261,265.8c0,69.4-52.7,131.7-454.9,536.3c-474.1,476.5-536.3,562.7-565.1,785.3c-21.5,153.2,40.7,344.8,158,476.5c129.3,148.4,282.5,217.9,478.9,220.3c258.6,2.4,330.4-45.5,850-560.3c404.6-402.2,466.9-454.9,536.3-454.9c160.4,0,263.4,100.6,265.8,258.6c0,93.4-14.4,117.3-129.3,239.4c-184.4,196.3-239.4,313.7-239.4,519.6c-2.4,368.7,261,627.3,644.1,632.1C5688.3,4252.4,5760.1,4235.6,5846.3,4194.9z"/></g></g>
</svg>