<?xml version="1.0"?>
<svg xmlns="http://www.w3.org/2000/svg" version="1" width="24" height="24" viewBox="0 0 24 24">
    <path d="M 18.5625 0 L 18.03125 0.65625 L 16.125 3 L 13 3 L 13 9 L 16.125 9 L 18.03125 11.34375 L 18.5625 12 L 19.3125 11.5625 L 23.90625 8.75 L 22.875 7.03125 L 19.03125 9.40625 L 17 6.875 L 17 5.125 L 19.03125 2.59375 L 22.875 4.96875 L 23.90625 3.25 L 19.3125 0.4375 L 18.5625 0 z M 4 2 C 1.8 2 0 3.8 0 6 C 0 8.2 1.8 10 4 10 C 6.2 10 8 8.2 8 6 C 8 3.8 6.2 2 4 2 z M 4 4 C 5.1 4 6 4.9 6 6 C 6 7.1 5.1 8 4 8 C 2.9 8 2 7.1 2 6 C 2 4.9 2.9 4 4 4 z M 8.8125 4 C 9.5125 5.6 9.2125 7.1 8.8125 8 L 12 8 L 12 4 L 8.8125 4 z M 4 4.90625 C 3.3924868 4.90625 2.90625 5.3924868 2.90625 6 C 2.90625 6.6075132 3.3924868 7.09375 4 7.09375 C 4.6075132 7.09375 5.09375 6.6075132 5.09375 6 C 5.09375 5.3924868 4.6075132 4.90625 4 4.90625 z M 7.8125 9.6875 C 6.5125 11.4875 3.3 12.19375 1 10.09375 L 7.40625 21 L 2 21 L 2 24 L 20 24 L 20 21 L 14.40625 21 L 7.8125 9.6875 z"/>
</svg>
