<?xml version="1.0" encoding="utf-8"?>
<!-- Svg Vector Icons : http://www.onlinewebfonts.com/icon -->
<!DOCTYPE svg PUBLIC "-//W3C//DTD SVG 1.1//EN" "http://www.w3.org/Graphics/SVG/1.1/DTD/svg11.dtd">
<svg version="1.1" xmlns="http://www.w3.org/2000/svg" xmlns:xlink="http://www.w3.org/1999/xlink" x="0px" y="0px" viewBox="0 0 1000 1000" enable-background="new 0 0 1000 1000" xml:space="preserve">
<metadata> Svg Vector Icons : http://www.onlinewebfonts.com/icon </metadata>
<g><g><g id="_x36_1._Download"><g><path d="M941,402h-97.8c-0.1,0-0.2,0-0.2,0H598l112.4-112.3C729.5,270.5,723,255,696,255h-98V108c0-27.1-22-49-49-49h-98c-27,0-49,21.9-49,49v147h-98c-27,0-33.5,15.5-14.4,34.6L402,402H157c-0.1,0-0.1,0-0.2,0H59c-27.1,0-49,21.9-49,49c0,27.1,21.9,49,49,49v343c0,54.1,43.9,98,98,98h686c54.1,0,98-43.9,98-98V500h0c27.1,0,49-21.9,49-49C990,424,968.1,402,941,402z M843,843H157V500l0,0v-98h245l63.3,63.3c19.1,19.1,50.1,19.1,69.3,0l63.3-63.3h245L843,843L843,843z"/></g></g></g><g></g><g></g><g></g><g></g><g></g><g></g><g></g><g></g><g></g><g></g><g></g><g></g><g></g><g></g><g></g></g>
</svg>